<svg preserveAspectRatio="none" width="100%" height="100%" overflow="visible" style="display: block;" viewBox="0 0 14 15" fill="none" xmlns="http://www.w3.org/2000/svg">
<path id="Vector" d="M5.55556 6.8V11M8.44444 6.8V11M12.0556 3.3V13.1C12.0556 13.4713 11.9034 13.8274 11.6325 14.0899C11.3616 14.3525 10.9942 14.5 10.6111 14.5H3.38889C3.0058 14.5 2.6384 14.3525 2.36751 14.0899C2.09663 13.8274 1.94444 13.4713 1.94444 13.1V3.3M0.5 3.3H13.5M4.11111 3.3V1.9C4.11111 1.5287 4.26329 1.1726 4.53418 0.91005C4.80507 0.6475 5.17247 0.5 5.55556 0.5H8.44444C8.82754 0.5 9.19494 0.6475 9.46582 0.91005C9.73671 1.1726 9.88889 1.5287 9.88889 1.9V3.3" stroke="var(--stroke-0, white)" stroke-linecap="round" stroke-linejoin="round"/>
</svg>
