<svg preserveAspectRatio="none" width="100%" height="100%" overflow="visible" style="display: block;" viewBox="0 0 15 15" fill="none" xmlns="http://www.w3.org/2000/svg">
<path id="Vector" d="M0.5 7.5C0.5 8.88447 0.910543 10.2378 1.67971 11.389C2.44888 12.5401 3.54213 13.4373 4.82121 13.9672C6.1003 14.497 7.50776 14.6356 8.86563 14.3655C10.2235 14.0954 11.4708 13.4287 12.4497 12.4497C13.4287 11.4708 14.0954 10.2235 14.3655 8.86563C14.6356 7.50777 14.497 6.1003 13.9672 4.82122C13.4373 3.54214 12.5401 2.44889 11.389 1.67972C10.2378 0.910546 8.88447 0.500004 7.5 0.500004C5.54307 0.507365 3.66475 1.27095 2.25778 2.63111L0.5 4.38889M0.5 4.38889V0.500004M0.5 4.38889H4.38889M7.5 3.61111V7.5L10.6111 9.05556" stroke="var(--stroke-0, white)" stroke-linecap="round" stroke-linejoin="round"/>
</svg>
