<svg width="24" height="24" viewBox="0 0 24 24" fill="none" xmlns="http://www.w3.org/2000/svg">
<rect width="24" height="24" rx="8" fill="#222424"/>
<path d="M6 18.2669V17.6987L8.63415 17.4577H9.13343L11.7676 17.6987V18.2669H6ZM7.61837 18.2669C7.64132 17.2913 7.6528 16.3099 7.6528 15.3228C7.6528 14.3243 7.6528 13.32 7.6528 12.3099V11.4835C7.6528 10.485 7.6528 9.49213 7.6528 8.50504C7.6528 7.50647 7.64132 6.5079 7.61837 5.50934H10.132C10.0976 6.48495 10.0746 7.48352 10.0631 8.50504C10.0631 9.51508 10.0631 10.594 10.0631 11.7418V12.2066C10.0631 13.2511 10.0631 14.2726 10.0631 15.2712C10.0746 16.2698 10.0976 17.2683 10.132 18.2669H7.61837ZM16.1406 18.4907C15.429 18.4907 14.8838 18.3759 14.505 18.1464C14.1263 17.9053 13.891 17.4807 13.7991 16.8723L13.1793 14.3071C13.076 13.8365 12.9498 13.452 12.8006 13.1535C12.6514 12.8436 12.439 12.6198 12.1636 12.4821C11.8996 12.3329 11.5323 12.2583 11.0617 12.2583H8.90962V11.6557H11.3199C11.9627 11.6557 12.4907 11.5294 12.9039 11.2769C13.3171 11.0129 13.6212 10.6686 13.8164 10.2439C14.023 9.80777 14.1263 9.3257 14.1263 8.79772C14.1263 7.94837 13.891 7.29413 13.4204 6.83502C12.9613 6.37591 12.2611 6.14635 11.3199 6.14635H8.8924V5.50934H11.8881C13.3573 5.50934 14.4821 5.79628 15.2626 6.37017C16.0431 6.93258 16.4333 7.72455 16.4333 8.74607C16.4333 9.297 16.2841 9.80777 15.9857 10.2784C15.6987 10.7489 15.2224 11.1449 14.5567 11.4663C13.9024 11.7762 13.0301 11.9656 11.9397 12.0345V11.8451C12.858 11.8795 13.5639 12.0058 14.0574 12.2238C14.5624 12.4304 14.9354 12.7346 15.1765 13.1363C15.429 13.538 15.6184 14.0431 15.7446 14.6514L16.5194 18.0603L15.3314 17.5266L18 17.6987V18.2669C17.7016 18.3358 17.4146 18.3874 17.1392 18.4218C16.8752 18.4677 16.5423 18.4907 16.1406 18.4907ZM6 6.07749V5.50934H8.8924V6.31852H8.63415L6 6.07749Z" fill="white"/>
</svg>
