<svg width="16" height="16" viewBox="0 0 16 16" fill="none" xmlns="http://www.w3.org/2000/svg">
<path d="M8 9C8.48325 9 8.875 8.55228 8.875 8C8.875 7.44772 8.48325 7 8 7C7.51675 7 7.125 7.44772 7.125 8C7.125 8.55228 7.51675 9 8 9Z" fill="white"/>
<path d="M14.125 9C14.6082 9 15 8.55228 15 8C15 7.44772 14.6082 7 14.125 7C13.6418 7 13.25 7.44772 13.25 8C13.25 8.55228 13.6418 9 14.125 9Z" fill="white"/>
<path d="M1.875 9C2.35825 9 2.75 8.55228 2.75 8C2.75 7.44772 2.35825 7 1.875 7C1.39175 7 1 7.44772 1 8C1 8.55228 1.39175 9 1.875 9Z" fill="white"/>
<path d="M8 9C8.48325 9 8.875 8.55228 8.875 8C8.875 7.44772 8.48325 7 8 7C7.51675 7 7.125 7.44772 7.125 8C7.125 8.55228 7.51675 9 8 9Z" stroke="white" stroke-linecap="round" stroke-linejoin="round"/>
<path d="M14.125 9C14.6082 9 15 8.55228 15 8C15 7.44772 14.6082 7 14.125 7C13.6418 7 13.25 7.44772 13.25 8C13.25 8.55228 13.6418 9 14.125 9Z" stroke="white" stroke-linecap="round" stroke-linejoin="round"/>
<path d="M1.875 9C2.35825 9 2.75 8.55228 2.75 8C2.75 7.44772 2.35825 7 1.875 7C1.39175 7 1 7.44772 1 8C1 8.55228 1.39175 9 1.875 9Z" stroke="white" stroke-linecap="round" stroke-linejoin="round"/>
</svg>
