<svg width="120" height="18" viewBox="0 0 120 18" fill="none" xmlns="http://www.w3.org/2000/svg">
<path d="M2.62732 13.5248V12.9798L5.30549 12.7486H5.96656L8.67864 12.9798V13.5248H2.62732ZM4.40712 13.5248C4.41842 13.0954 4.42407 12.7046 4.42407 12.3523C4.43537 11.989 4.44102 11.6092 4.44102 11.2128C4.45232 10.8055 4.45797 10.3431 4.45797 9.82569C4.45797 9.29725 4.45797 8.66422 4.45797 7.92661H6.86494C6.86494 8.66422 6.86494 9.29174 6.86494 9.80918C6.86494 10.3266 6.86494 10.789 6.86494 11.1963C6.86494 11.5927 6.86494 11.9725 6.86494 12.3358C6.87624 12.6991 6.88754 13.0954 6.89884 13.5248H4.40712ZM4.78003 9.3633L0.694969 1.28807H3.42399L6.74628 8.20734H6.25472L6.37337 7.94312L9.54311 1.28807H10.4076L6.33947 9.3633H4.78003ZM0 1.83303V1.28807H5.49195V1.83303L3.15279 2.06422H2.49172L0 1.83303ZM7.47515 1.83303V1.28807H11.4755V1.83303L9.78042 2.06422H9.39056L7.47515 1.83303Z" fill="white"/>
<path d="M15.1794 13.789C14.2867 13.789 13.49 13.6018 12.7894 13.2275C12.1001 12.8422 11.5577 12.2972 11.1621 11.5927C10.7779 10.8881 10.5858 10.0459 10.5858 9.06606C10.5858 8.08624 10.7949 7.24954 11.213 6.55596C11.6311 5.86239 12.1905 5.33395 12.8911 4.97064C13.5917 4.59633 14.3545 4.40917 15.1794 4.40917C16.0156 4.40917 16.784 4.59083 17.4847 4.95413C18.1853 5.31743 18.7447 5.84587 19.1628 6.53945C19.5809 7.23303 19.7899 8.07523 19.7899 9.06606C19.7899 10.0459 19.5922 10.8936 19.1967 11.6092C18.8012 12.3138 18.2531 12.8532 17.5525 13.2275C16.8631 13.6018 16.0721 13.789 15.1794 13.789ZM15.1794 13.244C15.8687 13.244 16.3998 12.8972 16.7727 12.2037C17.157 11.5101 17.3491 10.4752 17.3491 9.09908C17.3491 7.71193 17.157 6.67706 16.7727 5.9945C16.3998 5.31193 15.8687 4.97064 15.1794 4.97064C14.5014 4.97064 13.9703 5.31193 13.5861 5.9945C13.2018 6.67706 13.0097 7.71193 13.0097 9.09908C13.0097 10.4752 13.2018 11.5101 13.5861 12.2037C13.9703 12.8972 14.5014 13.244 15.1794 13.244Z" fill="white"/>
<path d="M24.7915 13.789C23.9553 13.789 23.2999 13.5413 22.8253 13.0459C22.3506 12.5395 22.119 11.6642 22.1303 10.4202L22.1811 5.30092L22.6897 5.68073L20.9268 5.36697V4.93761L24.3169 4.52477L24.5203 4.68991L24.4355 7.10092V10.5853C24.4355 11.3229 24.5655 11.8349 24.8254 12.1211C25.0853 12.3963 25.4469 12.5339 25.9102 12.5339C26.3962 12.5339 26.8482 12.3908 27.2663 12.1046C27.6957 11.8183 28.0799 11.444 28.4189 10.9817L28.9783 11.8239H28.1816C27.7522 12.3963 27.255 12.8697 26.69 13.244C26.1362 13.6073 25.5034 13.789 24.7915 13.789ZM28.046 13.7229L27.9443 11.7248V11.6752L28.0121 5.56514L26.7917 5.38349V4.98716L30.1309 4.52477L30.3174 4.68991L30.2496 7.10092V12.9468L31.4022 13.0624V13.5413L28.046 13.7229Z" fill="white"/>
<path d="M32.5503 13.5248V13.0294L34.3471 12.8642H35.4149L37.2117 13.0294V13.5248H32.5503ZM33.7368 13.5248C33.7594 13.2495 33.7707 12.8807 33.7707 12.4183C33.782 11.956 33.7877 11.4771 33.7877 10.9817C33.799 10.4752 33.8046 10.0294 33.8046 9.64404V8.40551C33.8046 7.85505 33.799 7.39817 33.7877 7.03486C33.7764 6.66055 33.7594 6.26973 33.7368 5.86239L32.4147 5.74679V5.35046L35.737 4.4422L35.9574 4.57431L36.093 6.45688V9.64404C36.093 10.0294 36.093 10.4752 36.093 10.9817C36.1043 11.4771 36.1099 11.956 36.1099 12.4183C36.1212 12.8807 36.1325 13.2495 36.1438 13.5248H33.7368ZM38.3982 13.5248V13.0294L40.1611 12.8642H41.229L43.0596 13.0294V13.5248H38.3982ZM39.5678 13.5248C39.5791 13.2495 39.5848 12.8862 39.5848 12.4349C39.5961 11.9725 39.6017 11.4936 39.6017 10.9982C39.613 10.4917 39.6187 10.0404 39.6187 9.64404V7.41468C39.6187 6.7211 39.5057 6.2367 39.2797 5.96147C39.0649 5.67523 38.7429 5.53211 38.3135 5.53211C37.9745 5.53211 37.5564 5.66422 37.0591 5.92844C36.5619 6.18165 36.0534 6.60551 35.5336 7.2L35.4658 6.48991H35.7201C36.3529 5.70826 36.9518 5.16881 37.5168 4.87156C38.0931 4.5633 38.6864 4.40917 39.2966 4.40917C40.0876 4.40917 40.7148 4.66239 41.1781 5.16881C41.6527 5.67523 41.89 6.4734 41.89 7.5633V9.64404C41.89 10.0404 41.89 10.4917 41.89 10.9982C41.9013 11.4936 41.9126 11.9725 41.9239 12.4349C41.9352 12.8862 41.9465 13.2495 41.9578 13.5248H39.5678Z" fill="white"/>
<path d="M47.8663 17.8018C46.8944 17.8018 46.126 17.7028 45.561 17.5046C45.0073 17.3174 44.6118 17.0587 44.3745 16.7284C44.1484 16.3982 44.0354 16.0349 44.0354 15.6385C44.0354 15.1651 44.2276 14.7358 44.6118 14.3505C44.996 13.9761 45.5723 13.6624 46.3407 13.4092L46.3916 13.5083C46.0864 13.8165 45.8491 14.0917 45.6796 14.3339C45.5214 14.5872 45.4423 14.9009 45.4423 15.2752C45.4423 15.8807 45.6514 16.3376 46.0695 16.6459C46.4989 16.9651 47.0978 17.1248 47.8663 17.1248C49.0189 17.1248 49.8834 16.9376 50.4597 16.5633C51.036 16.2 51.3241 15.7156 51.3241 15.1101C51.3241 14.8018 51.2055 14.5156 50.9682 14.2514C50.7309 13.9982 50.3071 13.8716 49.6969 13.8716H47.7476C47.3182 13.8716 46.9735 13.8606 46.7136 13.8385C46.4537 13.8275 46.1995 13.789 45.9508 13.7229V13.6569C45.0242 13.3927 44.5609 12.8587 44.5609 12.055C44.5609 11.6807 44.6796 11.3064 44.9169 10.9321C45.1542 10.5578 45.5779 10.1725 46.1882 9.77615V9.62752L46.5272 9.79266C46.3012 10.0569 46.1317 10.2881 46.0186 10.4862C45.9169 10.6844 45.8661 10.9101 45.8661 11.1633C45.8661 11.4385 45.9678 11.6532 46.1712 11.8073C46.3746 11.9505 46.7023 12.022 47.1543 12.022H49.6291C50.4879 12.022 51.1716 12.1266 51.6801 12.3358C52.1999 12.5339 52.5785 12.8147 52.8158 13.178C53.0531 13.5413 53.1717 13.9596 53.1717 14.433C53.1717 15.0055 52.9627 15.545 52.5446 16.0514C52.1378 16.5688 51.5389 16.9872 50.7478 17.3064C49.9568 17.6367 48.9963 17.8018 47.8663 17.8018ZM48.1544 10.4037C47.3408 10.4037 46.6571 10.2771 46.1034 10.0239C45.5497 9.75963 45.1316 9.40734 44.8491 8.96697C44.5779 8.5156 44.4423 8.00367 44.4423 7.43119C44.4423 6.55046 44.7587 5.82936 45.3915 5.26789C46.0243 4.69541 46.9509 4.40917 48.1714 4.40917C48.8381 4.40917 49.4144 4.49725 49.9003 4.6734C50.3862 4.83853 50.7761 5.06973 51.0699 5.36697L51.1377 5.43303C51.6349 5.95046 51.8835 6.61651 51.8835 7.43119C51.8835 8.00367 51.7423 8.5156 51.4597 8.96697C51.1772 9.40734 50.7591 9.75963 50.2054 10.0239C49.663 10.2771 48.9793 10.4037 48.1544 10.4037ZM48.1544 9.89174C48.6855 9.89174 49.098 9.67156 49.3918 9.23119C49.6856 8.77982 49.8325 8.17982 49.8325 7.43119C49.8325 6.63853 49.6799 6.02202 49.3748 5.58165C49.081 5.14128 48.6799 4.9211 48.1714 4.9211C47.6515 4.9211 47.2447 5.14679 46.9509 5.59817C46.6571 6.03853 46.5102 6.64954 46.5102 7.43119C46.5102 8.17982 46.6515 8.77982 46.934 9.23119C47.2165 9.67156 47.6233 9.89174 48.1544 9.89174ZM50.4936 5.54862V5.30092H50.5953L53.0192 4.42569L53.3073 4.60734V5.7633L50.4936 5.54862Z" fill="white"/>
<path d="M54.9376 18C54.3952 18 53.9771 17.9009 53.6833 17.7028C53.3782 17.5156 53.1861 17.2624 53.107 16.9431C53.2426 16.2716 53.6438 15.9358 54.3105 15.9358C54.5704 15.9358 54.7964 16.0018 54.9885 16.1339C55.1919 16.2661 55.3783 16.4807 55.5479 16.778L56.0564 17.5706V17.6697H55.6835V17.5211C55.8191 17.411 55.9377 17.2954 56.0394 17.1743C56.1524 17.0642 56.2428 16.9046 56.3106 16.6954C56.4349 16.3872 56.5084 15.9853 56.531 15.4899C56.5649 14.9945 56.5762 14.4275 56.5649 13.789C56.5649 13.1615 56.5649 12.4899 56.5649 11.7743V8.50459C56.5649 7.95413 56.5592 7.46973 56.5479 7.05138C56.5479 6.63303 56.5366 6.22569 56.514 5.82936L55.1749 5.71376V5.31743L58.5989 4.4422L58.8871 4.60734L58.8362 7.11743V12.2037C58.8362 13.0734 58.8023 13.7945 58.7345 14.367C58.6667 14.9505 58.5424 15.4349 58.3616 15.8202C58.1921 16.2165 57.9435 16.5798 57.6158 16.9101C57.1977 17.3174 56.757 17.5982 56.2937 17.7523C55.8304 17.9174 55.3783 18 54.9376 18ZM57.6158 2.70826C57.2542 2.70826 56.9434 2.59817 56.6835 2.37798C56.4349 2.14679 56.3106 1.84954 56.3106 1.48624C56.3106 1.14495 56.4349 0.864221 56.6835 0.644037C56.9434 0.412844 57.2542 0.297248 57.6158 0.297248C57.9661 0.297248 58.2656 0.412844 58.5142 0.644037C58.7741 0.864221 58.904 1.14495 58.904 1.48624C58.904 1.84954 58.7741 2.14679 58.5142 2.37798C58.2656 2.59817 57.9661 2.70826 57.6158 2.70826Z" fill="white"/>
<path d="M65.6666 13.789C64.7739 13.789 63.9772 13.6018 63.2766 13.2275C62.5873 12.8422 62.0449 12.2972 61.6494 11.5927C61.2651 10.8881 61.073 10.0459 61.073 9.06606C61.073 8.08624 61.2821 7.24954 61.7002 6.55596C62.1183 5.86239 62.6777 5.33395 63.3783 4.97064C64.0789 4.59633 64.8417 4.40917 65.6666 4.40917C66.5028 4.40917 67.2713 4.59083 67.9719 4.95413C68.6725 5.31743 69.2319 5.84587 69.65 6.53945C70.0681 7.23303 70.2771 8.07523 70.2771 9.06606C70.2771 10.0459 70.0794 10.8936 69.6839 11.6092C69.2884 12.3138 68.7403 12.8532 68.0397 13.2275C67.3504 13.6018 66.5593 13.789 65.6666 13.789ZM65.6666 13.244C66.3559 13.244 66.887 12.8972 67.26 12.2037C67.6442 11.5101 67.8363 10.4752 67.8363 9.09908C67.8363 7.71193 67.6442 6.67706 67.26 5.9945C66.887 5.31193 66.3559 4.97064 65.6666 4.97064C64.9886 4.97064 64.4575 5.31193 64.0733 5.9945C63.6891 6.67706 63.497 7.71193 63.497 9.09908C63.497 10.4752 63.6891 11.5101 64.0733 12.2037C64.4575 12.8972 64.9886 13.244 65.6666 13.244Z" fill="white"/>
<path d="M76.3103 13.789C75.4176 13.789 74.6209 13.6018 73.9203 13.2275C73.231 12.8422 72.6886 12.2972 72.2931 11.5927C71.9088 10.8881 71.7167 10.0459 71.7167 9.06606C71.7167 8.08624 71.9258 7.24954 72.3439 6.55596C72.762 5.86239 73.3214 5.33395 74.022 4.97064C74.7226 4.59633 75.4854 4.40917 76.3103 4.40917C77.1465 4.40917 77.915 4.59083 78.6156 4.95413C79.3162 5.31743 79.8756 5.84587 80.2937 6.53945C80.7118 7.23303 80.9208 8.07523 80.9208 9.06606C80.9208 10.0459 80.7231 10.8936 80.3276 11.6092C79.9321 12.3138 79.384 12.8532 78.6834 13.2275C77.9941 13.6018 77.203 13.789 76.3103 13.789ZM76.3103 13.244C76.9996 13.244 77.5307 12.8972 77.9037 12.2037C78.2879 11.5101 78.48 10.4752 78.48 9.09908C78.48 7.71193 78.2879 6.67706 77.9037 5.9945C77.5307 5.31193 76.9996 4.97064 76.3103 4.97064C75.6323 4.97064 75.1012 5.31193 74.717 5.9945C74.3328 6.67706 74.1407 7.71193 74.1407 9.09908C74.1407 10.4752 74.3328 11.5101 74.717 12.2037C75.1012 12.8972 75.6323 13.244 76.3103 13.244Z" fill="white"/>
<path d="M86.6 13.5248V12.9798L89.1935 12.7486H89.685L92.2784 12.9798V13.5248H86.6ZM88.1934 13.5248C88.216 12.589 88.2273 11.6477 88.2273 10.7009C88.2273 9.74312 88.2273 8.77982 88.2273 7.81101V7.01835C88.2273 6.06055 88.2273 5.10826 88.2273 4.16147C88.2273 3.20367 88.216 2.24587 88.1934 1.28807H90.6681C90.6342 2.22385 90.6116 3.18165 90.6003 4.16147C90.6003 5.13028 90.6003 6.16514 90.6003 7.26606V7.71193C90.6003 8.71376 90.6003 9.69358 90.6003 10.6514C90.6116 11.6092 90.6342 12.567 90.6681 13.5248H88.1934ZM96.5839 13.7394C95.8832 13.7394 95.3465 13.6294 94.9736 13.4092C94.6007 13.178 94.369 12.7706 94.2786 12.1872L93.6684 9.72661C93.5667 9.27523 93.4424 8.90642 93.2955 8.62018C93.1486 8.32294 92.9395 8.10826 92.6683 7.97615C92.4084 7.83303 92.0468 7.76147 91.5835 7.76147H89.4647V7.18349H91.8377C92.4706 7.18349 92.9904 7.06239 93.3972 6.82018C93.804 6.56697 94.1034 6.2367 94.2956 5.82936C94.499 5.41101 94.6007 4.94862 94.6007 4.4422C94.6007 3.62752 94.369 3 93.9057 2.55963C93.4537 2.11927 92.7644 1.89908 91.8377 1.89908H89.4477V1.28807H92.3971C93.8435 1.28807 94.951 1.5633 95.7194 2.11376C96.4878 2.65321 96.872 3.41284 96.872 4.39266C96.872 4.9211 96.7251 5.41101 96.4313 5.86239C96.1488 6.31376 95.6798 6.69358 95.0244 7.00184C94.3803 7.29908 93.5215 7.48073 92.4479 7.54679V7.36514C93.352 7.39817 94.0469 7.51927 94.5329 7.72844C95.0301 7.92661 95.3973 8.21835 95.6346 8.60367C95.8832 8.98899 96.0697 9.4734 96.194 10.0569L96.9568 13.3266L95.7872 12.8147L98.4145 12.9798V13.5248C98.1207 13.5908 97.8382 13.6404 97.567 13.6734C97.3071 13.7174 96.9794 13.7394 96.5839 13.7394ZM86.6 1.83303V1.28807H89.4477V2.06422H89.1935L86.6 1.83303Z" fill="white"/>
<path d="M103.557 13.789C102.664 13.789 101.867 13.6018 101.167 13.2275C100.478 12.8422 99.9351 12.2972 99.5396 11.5927C99.1554 10.8881 98.9633 10.0459 98.9633 9.06606C98.9633 8.08624 99.1723 7.24954 99.5904 6.55596C100.009 5.86239 100.568 5.33395 101.269 4.97064C101.969 4.59633 102.732 4.40917 103.557 4.40917C104.393 4.40917 105.161 4.59083 105.862 4.95413C106.563 5.31743 107.122 5.84587 107.54 6.53945C107.958 7.23303 108.167 8.07523 108.167 9.06606C108.167 10.0459 107.97 10.8936 107.574 11.6092C107.179 12.3138 106.631 12.8532 105.93 13.2275C105.241 13.6018 104.45 13.789 103.557 13.789ZM103.557 13.244C104.246 13.244 104.777 12.8972 105.15 12.2037C105.534 11.5101 105.727 10.4752 105.727 9.09908C105.727 7.71193 105.534 6.67706 105.15 5.9945C104.777 5.31193 104.246 4.97064 103.557 4.97064C102.879 4.97064 102.348 5.31193 101.964 5.9945C101.579 6.67706 101.387 7.71193 101.387 9.09908C101.387 10.4752 101.579 11.5101 101.964 12.2037C102.348 12.8972 102.879 13.244 103.557 13.244Z" fill="white"/>
<path d="M109.474 13.5248V13.0294L111.271 12.8642H112.355L114.118 13.0294V13.5248H109.474ZM110.677 13.5248C110.689 13.2495 110.694 12.8807 110.694 12.4183C110.705 11.956 110.711 11.4771 110.711 10.9817C110.722 10.4752 110.728 10.0294 110.728 9.64404V1.17248L109.406 1.08991V0.644037L112.796 0L113.016 0.148624L112.966 2.77431V6.20918L113.016 6.44037V9.64404C113.016 10.0294 113.016 10.4752 113.016 10.9817C113.028 11.4771 113.039 11.956 113.05 12.4183C113.062 12.8807 113.073 13.2495 113.084 13.5248H110.677ZM115.339 13.5248V13.0294L117.101 12.8642H118.152L120 13.0294V13.5248H115.339ZM116.491 13.5248C116.514 13.2495 116.525 12.8862 116.525 12.4349C116.536 11.9725 116.542 11.4936 116.542 10.9982C116.553 10.4917 116.559 10.0404 116.559 9.64404V7.41468C116.559 6.7211 116.435 6.2367 116.186 5.96147C115.949 5.67523 115.621 5.53211 115.203 5.53211C114.83 5.53211 114.406 5.66422 113.932 5.92844C113.468 6.18165 112.977 6.6 112.457 7.18349L111.965 6.4734H112.66C113.248 5.74679 113.819 5.22385 114.372 4.90459C114.926 4.57431 115.536 4.40917 116.203 4.40917C117.017 4.40917 117.661 4.66239 118.135 5.16881C118.61 5.66422 118.847 6.47339 118.847 7.59633V9.64404C118.847 10.0404 118.847 10.4917 118.847 10.9982C118.859 11.4936 118.864 11.9725 118.864 12.4349C118.876 12.8862 118.887 13.2495 118.898 13.5248H116.491Z" fill="white"/>
</svg>
