<svg width="16" height="16" viewBox="0 0 16 16" fill="none" xmlns="http://www.w3.org/2000/svg">
<g clip-path="url(#clip0_187_5186)">
<path d="M5.19978 7.99973H5.20678M7.99978 7.99973H8.00678M10.7998 7.99973H10.8068M1.69418 11.0391C1.79711 11.2987 1.82003 11.5832 1.75998 11.856L1.01448 14.159C0.990463 14.2758 0.996674 14.3968 1.03253 14.5105C1.06838 14.6242 1.13269 14.7269 1.21935 14.8088C1.30601 14.8907 1.41216 14.9491 1.52772 14.9784C1.64329 15.0078 1.76444 15.0072 1.87968 14.9766L4.26878 14.278C4.52618 14.2269 4.79275 14.2492 5.03808 14.3424C6.53285 15.0404 8.22613 15.1881 9.81918 14.7594C11.4122 14.3307 12.8027 13.353 13.7452 11.9991C14.6877 10.6451 15.1217 9.00171 14.9706 7.35892C14.8195 5.71613 14.0931 4.17949 12.9194 3.02011C11.7458 1.86073 10.2004 1.15311 8.55584 1.02211C6.91132 0.891115 5.27337 1.34515 3.93099 2.30411C2.58861 3.26308 1.62805 4.66534 1.21881 6.26349C0.809563 7.86165 0.977922 9.55299 1.69418 11.0391Z" stroke="white" stroke-linecap="round" stroke-linejoin="round"/>
</g>
<defs>
<clipPath id="clip0_187_5186">
<rect width="16" height="16" fill="white"/>
</clipPath>
</defs>
</svg>
