<svg width="16" height="16" viewBox="0 0 16 16" fill="none" xmlns="http://www.w3.org/2000/svg">
<g clip-path="url(#clip0_244_7347)">
<path d="M10.3333 3.33333V12.6667C10.3333 13.1282 10.4702 13.5793 10.7266 13.963C10.983 14.3467 11.3474 14.6458 11.7737 14.8224C12.2001 14.999 12.6693 15.0452 13.1219 14.9552C13.5745 14.8651 13.9903 14.6429 14.3166 14.3166C14.6429 13.9903 14.8651 13.5745 14.9552 13.1219C15.0452 12.6693 14.999 12.2001 14.8224 11.7737C14.6458 11.3474 14.3467 10.983 13.963 10.7266C13.5793 10.4702 13.1282 10.3333 12.6667 10.3333H3.33333C2.87184 10.3333 2.42072 10.4702 2.037 10.7266C1.65329 10.983 1.35422 11.3474 1.17762 11.7737C1.00101 12.2001 0.954803 12.6693 1.04484 13.1219C1.13487 13.5745 1.3571 13.9903 1.68342 14.3166C2.00974 14.6429 2.4255 14.8651 2.87812 14.9552C3.33075 15.0452 3.7999 14.999 4.22626 14.8224C4.65262 14.6458 5.01704 14.3467 5.27343 13.963C5.52982 13.5793 5.66667 13.1282 5.66667 12.6667V3.33333C5.66667 2.87184 5.52982 2.42072 5.27343 2.037C5.01704 1.65329 4.65262 1.35422 4.22626 1.17762C3.7999 1.00101 3.33075 0.954803 2.87812 1.04484C2.4255 1.13487 2.00974 1.3571 1.68342 1.68342C1.3571 2.00974 1.13487 2.4255 1.04484 2.87812C0.954803 3.33075 1.00101 3.7999 1.17762 4.22626C1.35422 4.65262 1.65329 5.01704 2.037 5.27343C2.42072 5.52982 2.87184 5.66667 3.33333 5.66667H12.6667C13.1282 5.66667 13.5793 5.52982 13.963 5.27343C14.3467 5.01704 14.6458 4.65262 14.8224 4.22626C14.999 3.7999 15.0452 3.33075 14.9552 2.87812C14.8651 2.4255 14.6429 2.00974 14.3166 1.68342C13.9903 1.3571 13.5745 1.13487 13.1219 1.04484C12.6693 0.954803 12.2001 1.00101 11.7737 1.17762C11.3474 1.35422 10.983 1.65329 10.7266 2.037C10.4702 2.42072 10.3333 2.87184 10.3333 3.33333Z" stroke="white" stroke-linecap="round" stroke-linejoin="round"/>
</g>
<defs>
<clipPath id="clip0_244_7347">
<rect width="16" height="16" fill="white"/>
</clipPath>
</defs>
</svg>
