<svg width="16" height="16" viewBox="0 0 16 16" fill="none" xmlns="http://www.w3.org/2000/svg">
<path d="M8 15C7.0366 15 6.12919 14.8159 5.27778 14.4478C4.42637 14.0791 3.68489 13.5787 3.05334 12.9467C2.42178 12.3146 1.92141 11.5731 1.55223 10.7222C1.18304 9.87133 0.998967 8.96392 1 8C1 7.03348 1.18408 6.12529 1.55223 5.27544C1.92089 4.42507 2.42126 3.68437 3.05334 3.05333C3.68541 2.4223 4.42689 1.92193 5.27778 1.55222C6.12919 1.18407 7.0366 1 8 1C8.96652 1 9.87471 1.18407 10.7246 1.55222C11.5749 1.92089 12.3159 2.42126 12.9474 3.05333C13.579 3.68541 14.0791 4.42611 14.4478 5.27544C14.8159 6.12581 15 7.034 15 8C15 8.96341 14.8159 9.87081 14.4478 10.7222C14.0791 11.5736 13.5787 12.3151 12.9467 12.9467C12.3146 13.5782 11.5739 14.0786 10.7246 14.4478C9.87522 14.817 8.96704 15.001 8 15ZM8 14.2284C8.4563 13.642 8.83274 13.0662 9.12934 12.501C9.42541 11.9358 9.66626 11.3032 9.85189 10.6032H6.14811C6.35397 11.3426 6.59974 11.9949 6.88545 12.5601C7.17167 13.1253 7.54319 13.6814 8 14.2284ZM7.00989 14.1118C6.64693 13.684 6.3156 13.1551 6.01589 12.5251C5.71619 11.8956 5.49323 11.2547 5.347 10.6024H2.36423C2.81015 11.5695 3.44197 12.3628 4.25967 12.9824C5.07789 13.6016 5.99463 13.978 7.00989 14.1118ZM8.99011 14.1118C10.0054 13.978 10.9221 13.6016 11.7403 12.9824C12.558 12.3628 13.1899 11.5695 13.6358 10.6024H10.6538C10.4567 11.2646 10.2086 11.9104 9.90945 12.5399C9.60974 13.1699 9.3033 13.6944 8.99011 14.1118ZM2.04689 9.82544H5.18523C5.12611 9.50603 5.08463 9.19492 5.06078 8.89211C5.03589 8.58981 5.02345 8.29244 5.02345 8C5.02345 7.70755 5.03563 7.41018 5.06 7.10789C5.08437 6.80559 5.12586 6.49448 5.18445 6.17455H2.04767C1.96315 6.44418 1.89704 6.73792 1.84934 7.05578C1.80163 7.37311 1.77778 7.68785 1.77778 8C1.77778 8.31215 1.80137 8.62715 1.84856 8.945C1.89575 9.26285 1.96186 9.55607 2.04689 9.82466M5.963 9.82466H10.037C10.0961 9.50578 10.1376 9.19985 10.1614 8.90689C10.1863 8.61444 10.1988 8.31215 10.1988 8C10.1988 7.68785 10.1866 7.38555 10.1622 7.09311C10.1379 6.80066 10.0964 6.49474 10.0378 6.17533H5.96223C5.90363 6.49422 5.86215 6.80015 5.83778 7.09311C5.81341 7.38555 5.80123 7.68785 5.80123 8C5.80123 8.31215 5.81341 8.61444 5.83778 8.90689C5.86215 9.19933 5.90441 9.50526 5.963 9.82466ZM10.8156 9.82466H13.9531C14.0376 9.55555 14.1037 9.26233 14.1514 8.945C14.1986 8.62715 14.2222 8.31215 14.2222 8C14.2222 7.68785 14.1986 7.37285 14.1514 7.055C14.1043 6.73715 14.0381 6.44392 13.9531 6.17533H10.8148C10.8739 6.49422 10.9154 6.80507 10.9392 7.10789C10.9641 7.4107 10.9766 7.70807 10.9766 8C10.9766 8.29192 10.9644 8.58929 10.94 8.89211C10.9156 9.19492 10.8741 9.50603 10.8156 9.82544M10.6538 5.39755H13.6358C13.18 4.4103 12.5557 3.61696 11.7629 3.01755C10.9701 2.41815 10.0458 2.03678 8.99011 1.87344C9.35308 2.351 9.67948 2.89726 9.96933 3.51222C10.2592 4.12667 10.4873 4.75511 10.6538 5.39755ZM6.14811 5.39755H9.85189C9.64656 4.66748 9.39326 4.00741 9.092 3.41733C8.79074 2.82726 8.42674 2.27867 8 1.77156C7.57326 2.27815 7.20926 2.82674 6.908 3.41733C6.60674 4.00792 6.35293 4.668 6.14811 5.39755ZM2.365 5.39755H5.347C5.51345 4.75563 5.7416 4.12718 6.03145 3.51222C6.3213 2.89726 6.64771 2.351 7.01067 1.87344C5.94563 2.0373 5.01904 2.421 4.23089 3.02456C3.44274 3.62915 2.82052 4.41989 2.36423 5.39678" fill="white"/>
</svg>
