<svg width="16" height="16" viewBox="0 0 16 16" fill="none" xmlns="http://www.w3.org/2000/svg">
<path d="M9.25 1H4.25C3.91848 1 3.60054 1.1475 3.36612 1.41005C3.1317 1.6726 3 2.0287 3 2.4V13.6C3 13.9713 3.1317 14.3274 3.36612 14.5899C3.60054 14.8525 3.91848 15 4.25 15H11.75C12.0815 15 12.3995 14.8525 12.6339 14.5899C12.8683 14.3274 13 13.9713 13 13.6V5.2M9.25 1C9.44785 0.999643 9.6438 1.04312 9.82658 1.12794C10.0094 1.21276 10.1754 1.33723 10.315 1.4942L12.5575 4.0058C12.698 4.16226 12.8095 4.34834 12.8854 4.55331C12.9614 4.75829 13.0003 4.97808 13 5.2M9.25 1V4.5C9.25 4.68565 9.31585 4.8637 9.43306 4.99498C9.55027 5.12625 9.70924 5.2 9.875 5.2L13 5.2" stroke="white" stroke-linecap="round" stroke-linejoin="round"/>
</svg>
