<svg width="16" height="16" viewBox="0 0 16 16" fill="none" xmlns="http://www.w3.org/2000/svg">
<g clip-path="url(#clip0_187_4673)">
<path d="M1 8C1 9.38447 1.41054 10.7378 2.17971 11.889C2.94888 13.0401 4.04213 13.9373 5.32121 14.4672C6.6003 14.997 8.00776 15.1356 9.36563 14.8655C10.7235 14.5954 11.9708 13.9287 12.9497 12.9497C13.9287 11.9708 14.5954 10.7235 14.8655 9.36563C15.1356 8.00776 14.997 6.6003 14.4672 5.32121C13.9373 4.04213 13.0401 2.94888 11.889 2.17971C10.7378 1.41054 9.38447 1 8 1C6.04307 1.00736 4.16475 1.77095 2.75778 3.13111L1 4.88889M1 4.88889V1M1 4.88889H4.88889M8 4.11111V8L11.1111 9.55555" stroke="white" stroke-linecap="round" stroke-linejoin="round"/>
</g>
<defs>
<clipPath id="clip0_187_4673">
<rect width="16" height="16" fill="white"/>
</clipPath>
</defs>
</svg>
