<svg width="16" height="16" viewBox="0 0 16 16" fill="none" xmlns="http://www.w3.org/2000/svg">
<path d="M13.2503 1C13.405 1 13.5534 1.06141 13.6627 1.17071C13.7721 1.28002 13.8336 1.42827 13.8336 1.58285V4.50409H14.4168C14.5715 4.50409 14.7198 4.56549 14.8292 4.6748C14.9386 4.7841 15 4.93235 15 5.08694C15 5.24152 14.9386 5.38977 14.8292 5.49907C14.7198 5.60838 14.5715 5.66978 14.4168 5.66978H13.8336V10.9131C13.8336 11.0677 13.7721 11.2159 13.6627 11.3252C13.5534 11.4345 13.405 11.4959 13.2503 11.4959C13.0957 11.4959 12.9473 11.4345 12.838 11.3252C12.7286 11.2159 12.6671 11.0677 12.6671 10.9131V1.58285C12.6671 1.42827 12.7286 1.28002 12.838 1.17071C12.9473 1.06141 13.0957 1 13.2503 1ZM7.41818 2.1657H10.3343V3.62748C10.3343 4.10892 10.15 4.4528 9.86769 4.68594C9.57492 4.92957 9.13284 5.0846 8.58811 5.0846C8.43344 5.0846 8.28509 5.14601 8.17572 5.25532C8.06634 5.36462 8.0049 5.51287 8.0049 5.66745C8.0049 5.82203 8.06634 5.97028 8.17572 6.07959C8.28509 6.18889 8.43344 6.2503 8.58811 6.2503C9.34396 6.2503 10.0672 6.03581 10.6119 5.58352C11.1706 5.12191 11.5007 4.4458 11.5007 3.62748V1.58285C11.5007 1.42827 11.4393 1.28002 11.3299 1.17071C11.2205 1.06141 11.0722 1 10.9175 1H7.41818C7.2635 1 7.11516 1.06141 7.00579 1.17071C6.89641 1.28002 6.83496 1.42827 6.83496 1.58285C6.83496 1.73743 6.89641 1.88568 7.00579 1.99498C7.11516 2.10429 7.2635 2.1657 7.41818 2.1657ZM6.19809 4.85146C6.15262 4.7477 6.07787 4.65943 5.98299 4.59744C5.88811 4.53545 5.77722 4.50244 5.66387 4.50244C5.55051 4.50244 5.43962 4.53545 5.34474 4.59744C5.24986 4.65943 5.17511 4.7477 5.12964 4.85146L1.05179 14.177C1.01999 14.2473 1.00247 14.3232 1.00024 14.4003C0.998013 14.4774 1.01112 14.5542 1.03879 14.6262C1.06647 14.6982 1.10817 14.764 1.16147 14.8197C1.21478 14.8755 1.27863 14.9201 1.34933 14.9511C1.42003 14.982 1.49617 14.9986 1.57333 14.9999C1.6505 15.0012 1.72715 14.9872 1.79886 14.9587C1.87057 14.9302 1.9359 14.8877 1.99106 14.8338C2.04623 14.7798 2.09014 14.7155 2.12024 14.6445L3.49663 11.4971H7.8381L9.21799 14.6445C9.28289 14.7814 9.39857 14.8876 9.54051 14.9408C9.68246 14.9939 9.83953 14.9897 9.97844 14.9291C10.1173 14.8685 10.2272 14.7562 10.2847 14.616C10.3422 14.4759 10.3428 14.3188 10.2864 14.1782L6.19809 4.85146ZM7.32603 10.3302H4.00636L5.66503 6.53939L7.32603 10.3302Z" fill="white"/>
</svg>
