<svg width="16" height="16" viewBox="0 0 16 16" fill="none" xmlns="http://www.w3.org/2000/svg">
<path d="M3.93809 3.44509C3.9379 3.82816 3.78293 4.19546 3.5073 4.46619C3.23166 4.73693 2.85793 4.88892 2.46831 4.88873C2.0787 4.88854 1.70512 4.73618 1.42975 4.46517C1.15439 4.19417 0.999805 3.82671 1 3.44364C1.00019 3.06057 1.15516 2.69327 1.43079 2.42253C1.70643 2.1518 2.08016 1.99981 2.46978 2C2.85939 2.00019 3.23298 2.15255 3.50834 2.42356C3.7837 2.69456 3.93829 3.06202 3.93809 3.44509ZM3.98216 5.95828H1.04407V15H3.98216V5.95828ZM8.62434 5.95828H5.70094V15H8.59496V10.2553C8.59496 7.61208 12.0986 7.36654 12.0986 10.2553V15H15V9.2731C15 4.81723 9.81427 4.98333 8.59496 7.17155L8.62434 5.95828Z" fill="white"/>
</svg>
