<svg width="14" height="14" viewBox="0 0 14 14" fill="none" xmlns="http://www.w3.org/2000/svg">
<path d="M2.00442 13.1684L0.483063 11.2056C0.16154 10.7947 -0.00281008 10.3481 3.63503e-05 9.81098L0.00832818 1.61301C0.00832818 1.51054 0.0160011 1.40658 0.033946 1.30609C0.106468 0.909201 0.357325 0.661685 0.762013 0.624434L2.76528 0.468251L5.957 0.232864L9.00924 0.00712957C9.54833 -0.0354431 10.0138 0.113438 10.4523 0.432485C11.351 1.08655 12.2665 1.71746 13.1779 2.35321C13.4041 2.51125 13.5018 2.70901 13.5013 2.9918L13.4969 12.3809V12.5047C13.4858 13.0776 13.2098 13.3865 12.6383 13.4324C11.9964 13.4841 11.353 13.5175 10.7099 13.5566L6.83679 13.7905L3.39521 13.9956C2.88718 14.0294 2.48732 13.8709 2.20837 13.4344C2.15082 13.3434 2.07744 13.2622 2.00442 13.1684ZM2.79721 7.47654V11.6209L2.7982 12.3939C2.80488 12.7406 2.97468 12.9132 3.3212 12.933C3.4082 12.9378 3.4962 12.9349 3.58369 12.9296L6.48482 12.7585L12.0248 12.4418C12.3701 12.4225 12.5297 12.2712 12.562 11.929C12.5683 11.8675 12.5663 11.8052 12.5663 11.7433L12.5668 3.7638C12.5668 3.71739 12.5683 3.67098 12.5654 3.62457C12.5446 3.30701 12.4082 3.17743 12.0927 3.19427L9.23745 3.35874C7.90009 3.43654 6.56276 3.51484 5.22546 3.59363L3.21972 3.71405C2.96404 3.73039 2.84845 3.84065 2.80983 4.09064C2.80069 4.15694 2.79664 4.22384 2.79771 4.29076L2.79721 7.47654ZM9.8727 0.951155C9.6305 0.819724 9.36752 0.776161 9.09674 0.791136C8.68054 0.813907 8.26434 0.848188 7.84802 0.878261L1.91395 1.30943C1.73463 1.32243 1.55431 1.33542 1.37734 1.36748C1.31793 1.37812 1.24294 1.43802 1.22462 1.49222C1.21101 1.53034 1.27103 1.60732 1.31496 1.6494C1.39627 1.72712 1.48996 1.79234 1.57857 1.86251C1.78883 2.02834 2.01259 2.17958 2.20553 2.36286C2.57148 2.71037 2.99733 2.79069 3.48518 2.75542L7.32601 2.51459L11.4608 2.26658C11.4985 2.26472 11.5363 2.25309 11.6193 2.23762C11.5434 2.15878 11.4994 2.09839 11.4419 2.05582C11.2394 1.90621 11.0349 1.75926 10.8285 1.61499C10.5114 1.39157 10.1928 1.17029 9.8727 0.951155Z" fill="#222424"/>
<path d="M2.79721 7.46106L2.79771 4.29076C2.79771 4.22393 2.79969 4.15636 2.80983 4.09064C2.84845 3.84065 2.96404 3.73051 3.21972 3.71405L5.22546 3.59363L9.23745 3.35874L12.0925 3.19426C12.4082 3.17743 12.5446 3.30738 12.5653 3.62457C12.5683 3.67098 12.5668 3.71739 12.5668 3.7638L12.5663 11.7433L12.562 11.929C12.5297 12.2712 12.3701 12.4225 12.0248 12.4418L6.48482 12.7585L3.58369 12.9296L3.32133 12.933C2.97468 12.9132 2.80488 12.7406 2.7982 12.3944L2.79721 11.6209V7.46106ZM8.46111 7.46923L6.8686 5.04296C6.81303 4.95831 6.75845 4.93034 6.65598 4.94148L5.97717 4.98727L4.72845 5.07873C4.42153 5.10682 4.2359 5.39542 4.32092 5.69467L4.98228 5.75123V11.1091L4.5318 11.2362C4.33206 11.2951 4.24654 11.4634 4.31374 11.6785L5.83695 11.591L6.43693 11.5417C6.69558 11.4992 6.83481 11.3406 6.86959 11.082L6.0367 10.892V6.86208L6.09858 6.94871L8.01286 9.93771C8.29425 10.3742 8.58323 10.8058 8.87966 11.2322C9.09092 11.5354 9.40229 11.6282 9.75228 11.5527C9.97133 11.506 10.1816 11.417 10.3962 11.3478C10.5079 11.3115 10.5461 11.2448 10.5456 11.1196L10.5419 5.61237C10.5419 5.29048 10.5419 5.29048 10.8603 5.22625C11.1823 5.1614 11.263 5.03281 11.1895 4.68864L9.26504 4.80559C9.05565 4.82057 8.89711 4.99556 8.86531 5.19914C8.84971 5.29728 8.87001 5.35136 8.98745 5.35817L9.57011 5.42252V9.15741C9.20106 8.59445 8.83139 8.03139 8.46111 7.46923ZM9.88321 0.956475C10.1991 1.17463 10.5141 1.3941 10.8282 1.61487C11.0347 1.75918 11.2392 1.90617 11.4418 2.05582C11.4992 2.09839 11.5433 2.15878 11.6192 2.23762L11.4606 2.26658L7.32588 2.51459L3.48506 2.75542C2.9972 2.79069 2.57135 2.71037 2.2054 2.36286C2.01246 2.1797 1.78871 2.02834 1.57832 1.86251C1.48983 1.79234 1.39615 1.72712 1.31484 1.64927C1.2709 1.60719 1.21088 1.53046 1.2245 1.4921C1.24281 1.43802 1.3183 1.37812 1.37721 1.36748C1.55419 1.33555 1.7345 1.32243 1.91383 1.30943L7.84802 0.87826L9.09673 0.791135C9.36739 0.776284 9.63038 0.819599 9.88321 0.956475Z" fill="white"/>
<path d="M8.4678 7.47839L9.57011 9.15742V5.4224L8.98758 5.35805C8.87001 5.35137 8.84971 5.29729 8.86518 5.19915C8.89711 4.99556 9.05577 4.82057 9.26492 4.8056L11.1895 4.68864C11.263 5.03269 11.1823 5.1614 10.8603 5.22613C10.5417 5.28998 10.5417 5.28998 10.5417 5.61237L10.5456 11.1196C10.5461 11.2448 10.5079 11.3115 10.3962 11.3478L9.75228 11.5528C9.40229 11.6277 9.09092 11.5354 8.87979 11.2322C8.58347 10.8057 8.2945 10.3741 8.01299 9.93771L6.09845 6.94859C6.08496 6.9273 6.06949 6.9075 6.03657 6.86208V10.892L6.86959 11.082C6.83481 11.3406 6.69558 11.499 6.43693 11.5417C6.23966 11.574 6.03719 11.5789 5.83695 11.591L4.31374 11.6785C4.24654 11.4634 4.33206 11.2951 4.5318 11.2362L4.98228 11.1091V5.75123L4.32092 5.69467C4.2359 5.39543 4.42153 5.10682 4.72845 5.07873C5.14378 5.03999 5.56097 5.01636 5.97717 4.9874C6.2034 4.97193 6.43062 4.96611 6.65598 4.94148C6.75845 4.93034 6.81315 4.95831 6.8686 5.04296L8.4678 7.47839Z" fill="#222424"/>
</svg>
