<svg width="16" height="16" viewBox="0 0 16 16" fill="none" xmlns="http://www.w3.org/2000/svg">
<g clip-path="url(#clip0_187_4672)">
<path d="M10.1 3.10031L12.9001 5.90038M14.4219 4.36874C14.792 3.99873 14.9999 3.49685 15 2.97351C15.0001 2.45017 14.7922 1.94823 14.4222 1.57813C14.0522 1.20803 13.5503 1.00007 13.027 1C12.5037 0.999934 12.0018 1.20777 11.6317 1.57778L2.28937 10.9223C2.12684 11.0843 2.00664 11.2839 1.93936 11.5033L1.01465 14.5498C0.996563 14.6103 0.995196 14.6746 1.0107 14.7359C1.0262 14.7971 1.058 14.853 1.10271 14.8977C1.14743 14.9423 1.20339 14.974 1.26467 14.9894C1.32594 15.0048 1.39025 15.0034 1.45076 14.9852L4.49789 14.0612C4.71711 13.9945 4.91661 13.875 5.07889 13.7133L14.4219 4.36874Z" stroke="white" stroke-linecap="round" stroke-linejoin="round"/>
</g>
<defs>
<clipPath id="clip0_187_4672">
<rect width="16" height="16" fill="white"/>
</clipPath>
</defs>
</svg>
