<svg width="16" height="16" viewBox="0 0 16 16" fill="none" xmlns="http://www.w3.org/2000/svg">
<g clip-path="url(#clip0_133_105)">
<path d="M9.2824 11.1976C9.42697 11.264 9.58984 11.2792 9.74418 11.2406C9.89853 11.2021 10.0351 11.1121 10.1315 10.9855L10.38 10.66C10.5104 10.4861 10.6795 10.345 10.8739 10.2478C11.0683 10.1506 11.2827 10.1 11.5 10.1H13.6C13.9713 10.1 14.3274 10.2475 14.5899 10.5101C14.8525 10.7726 15 11.1287 15 11.5V13.6C15 13.9713 14.8525 14.3274 14.5899 14.5899C14.3274 14.8525 13.9713 15 13.6 15C10.2583 15 7.05341 13.6725 4.69045 11.3095C2.3275 8.94659 1 5.74173 1 2.4C1 2.0287 1.1475 1.6726 1.41005 1.41005C1.6726 1.1475 2.0287 1 2.4 1H4.5C4.8713 1 5.2274 1.1475 5.48995 1.41005C5.7525 1.6726 5.9 2.0287 5.9 2.4V4.5C5.9 4.71734 5.8494 4.9317 5.7522 5.1261C5.655 5.3205 5.51387 5.48959 5.34 5.62L5.0124 5.8657C4.88389 5.96382 4.79331 6.10341 4.75605 6.26075C4.71879 6.41808 4.73715 6.58346 4.808 6.7288C5.76468 8.67191 7.3381 10.2434 9.2824 11.1976Z" stroke="white" stroke-linecap="round" stroke-linejoin="round"/>
</g>
<defs>
<clipPath id="clip0_133_105">
<rect width="16" height="16" fill="white"/>
</clipPath>
</defs>
</svg>
