<svg width="16" height="16" viewBox="0 0 16 16" fill="none" xmlns="http://www.w3.org/2000/svg">
<path d="M7.05556 7.3V11.5M9.94444 7.3V11.5M13.5556 3.8V13.6C13.5556 13.9713 13.4034 14.3274 13.1325 14.5899C12.8616 14.8525 12.4942 15 12.1111 15H4.88889C4.5058 15 4.1384 14.8525 3.86751 14.5899C3.59663 14.3274 3.44444 13.9713 3.44444 13.6V3.8M2 3.8H15M5.61111 3.8V2.4C5.61111 2.0287 5.76329 1.6726 6.03418 1.41005C6.30507 1.1475 6.67247 1 7.05556 1H9.94444C10.3275 1 10.6949 1.1475 10.9658 1.41005C11.2367 1.6726 11.3889 2.0287 11.3889 2.4V3.8" stroke="white" stroke-linecap="round" stroke-linejoin="round"/>
</svg>
